<svg xmlns="http://www.w3.org/2000/svg" xmlns:xlink="http://www.w3.org/1999/xlink" aria-hidden="true" role="img" class="iconify iconify--logos" width="31.88" height="32" preserveAspectRatio="xMidYMid meet" viewBox="0 0 256 257">
  <defs>
    <!-- Define new linear gradients for a fresh color scheme -->
    <linearGradient id="NewGradient1" x1="0%" x2="100%" y1="0%" y2="100%">
      <stop offset="0%" stop-color="#FF6F61" /> <!-- Soft Coral -->
      <stop offset="100%" stop-color="#FF3F4C" /> <!-- Strong Red -->
    </linearGradient>
    <linearGradient id="NewGradient2" x1="0%" x2="100%" y1="0%" y2="100%">
      <stop offset="0%" stop-color="#FFDDC1" /> <!-- Light Peach -->
      <stop offset="100%" stop-color="#FFABAB" /> <!-- Light Pink -->
    </linearGradient>
  </defs>
  <!-- Adjusted path for a slight shape modification -->
  <path fill="url(#NewGradient1)" d="M250 40L130 255c-2.5 4.5-8.9 4.5-11.4 0L5 40c-2.8-4.8 1.4-10.7 6.9-9.7l120.4 21.5a6.5 6.5 0 0 0 2.3 0l117.9-21.5c5.4-1 9.6 4.8 6.9 9.6z"/>
  <!-- Adjusted path for a slight shape modification -->
  <path fill="url(#NewGradient2)" d="M190 10L100 30a3.3 3.3 0 0 0-2.6 3.0l-5.5 92.5a3.3 3.3 0 0 0 4.0 3.4l24.8-5.7c2.3-.5 4.4 1.5 4.0 3.8l-7.4 36c-.5 2.4 1.8 4.5 4.2 3.8l15.3-4.6c2.4-.7 4.7 1.4 4.2 3.8l-11.7 56.6c-.7 3.5 4.0 5.5 5.9 2.4l1.3-2.0l72.5-144.7c1.2-2.4-0.9-5.2-3.5-4.7l-25.5 4.9c-2.4.5-4.4-1.8-3.8-4.1l16.6-57.7c.7-2.4-1.4-4.6-3.8-4.1z"/>
</svg>
